# xmcd CD database file
#
# Track frame offsets:
#	150
#	13583
#	27214
#	39872
#	53493
#	66791
#	79413
#	91722
#	103659
#	115069
#	126891
#	138658
#	150587
#	162376
#	174066
#	185986
#	198554
#	210157
#	221691
#	233790
#	247303
#	260302
#
# Disc length: 3656 seconds
#
# Revision: 0
# Processed by: cddbd v1.4PL0 Copyright (c) Steve Scherf et al.
# Submitted via: CDex 1.50
#
DISCID=2a0e4616
DTITLE=Fiddlin' Doc Roberts - Volume 1 (1925-1928)
DYEAR=1900
DGENRE=Old-Time
TTITLE0=Martha Campbell
TTITLE1=All I've Got Is Done Gone
TTITLE2=My Baby Loves Shortenin' Bread
TTITLE3=Dixie ('Way Down South In Dixie)
TTITLE4=And The Cat Came Back The Very Next Day
TTITLE5=Billy In The Low Grounds
TTITLE6=In The Shadow Of The Pine
TTITLE7=Arkansas Traveler
TTITLE8=Buck Creek Gal
TTITLE9=Black Eyed Susie
TTITLE10=Old Buzzard
TTITLE11=Waynesburgh
TTITLE12=Cripple Creek
TTITLE13=Billy In The Low Ground
TTITLE14=And The Cat Came Back
TTITLE15=Smoky Row
TTITLE16=Old Zip Coon And Medley Reels
TTITLE17=Dance With A Gal With A Hole In Her Stocking
TTITLE18=Leather Breeches, Big Eared Mule, Irish Washerwoman
TTITLE19=Shippin' Sport
TTITLE20=Brick Yard Joe
TTITLE21=New Money
EXTD=
EXTT0=
EXTT1=
EXTT2=
EXTT3=
EXTT4=
EXTT5=
EXTT6=
EXTT7=
EXTT8=
EXTT9=
EXTT10=
EXTT11=
EXTT12=
EXTT13=
EXTT14=
EXTT15=
EXTT16=
EXTT17=
EXTT18=
EXTT19=
EXTT20=
EXTT21=
PLAYORDER=
